<svg width="18" height="18" viewBox="0 0 18 18" fill="none" xmlns="http://www.w3.org/2000/svg">
<path d="M12 9H14C14 7.67392 13.4732 6.40215 12.5355 5.46447C11.5979 4.52678 10.3261 4 9 4V6C9.79565 6 10.5587 6.31607 11.1213 6.87868C11.6839 7.44129 12 8.20435 12 9ZM16 9H18C18 4 13.97 0 9 0V2C12.86 2 16 5.13 16 9ZM17 12.5C15.75 12.5 14.55 12.3 13.43 11.93C13.08 11.82 12.69 11.9 12.41 12.18L10.21 14.38C7.38 12.94 5.06 10.62 3.62 7.79L5.82 5.59C6.1 5.31 6.18 4.92 6.07 4.57C5.7 3.45 5.5 2.25 5.5 1C5.5 0.734784 5.39464 0.48043 5.20711 0.292893C5.01957 0.105357 4.76522 0 4.5 0H1C0.734784 0 0.48043 0.105357 0.292893 0.292893C0.105357 0.48043 0 0.734784 0 1C0 5.50868 1.79107 9.8327 4.97918 13.0208C8.1673 16.2089 12.4913 18 17 18C17.2652 18 17.5196 17.8946 17.7071 17.7071C17.8946 17.5196 18 17.2652 18 17V13.5C18 13.2348 17.8946 12.9804 17.7071 12.7929C17.5196 12.6054 17.2652 12.5 17 12.5Z" fill="black"/>
</svg>
