<?xml version="1.0" encoding="iso-8859-1"?>
<!-- Uploaded to: SVG Repo, www.svgrepo.com, Generator: SVG Repo Mixer Tools -->
<svg fill="#000000" height="800px" width="800px" version="1.1" id="Layer_1" xmlns="http://www.w3.org/2000/svg" xmlns:xlink="http://www.w3.org/1999/xlink" 
	 viewBox="0 0 512 512" xml:space="preserve">
<g>
	<g>
		<path d="M460.8,51.2H51.2C22.921,51.2,0,74.121,0,102.4v307.2c0,28.279,22.921,51.2,51.2,51.2h409.6
			c28.279,0,51.2-22.921,51.2-51.2V102.4C512,74.121,489.079,51.2,460.8,51.2z M25.6,148.745L178.825,256L25.6,363.264V148.745z
			 M486.4,409.6c0,14.114-11.486,25.6-25.6,25.6H51.2c-14.114,0-25.6-11.486-25.6-25.6v-15.104l175.548-122.88l47.505,33.254
			c4.446,3.098,10.249,3.098,14.703,0l47.505-33.254L486.4,394.496V409.6z M486.4,363.255L333.175,256L486.4,148.736V363.255z
			 M486.4,117.504L256,278.775L25.6,117.504V102.4c0-14.114,11.486-25.6,25.6-25.6h409.6c14.114,0,25.6,11.486,25.6,25.6V117.504z"
			/>
	</g>
</g>
</svg>