<svg version="1.0" preserveAspectRatio="xMidYMid meet" viewBox="34.5 146.24999649 307.5 83.24999800200001" zoomAndPan="magnify" xmlns:xlink="http://www.w3.org/1999/xlink" xmlns="http://www.w3.org/2000/svg" style="max-height: 500px" width="307.5" height="83.24999800200001"><defs><clipPath id="8e0dcbc635"><path clip-rule="nonzero" d="M 227 162 L 337.5 162 L 337.5 215.980469 L 227 215.980469 Z M 227 162"/></clipPath><clipPath id="0cb7a88513"><path clip-rule="nonzero" d="M 37.5 156.730469 L 208 156.730469 L 208 215.980469 L 37.5 215.980469 Z M 37.5 156.730469"/></clipPath></defs><g clip-path="url(#8e0dcbc635)"><path fill-rule="nonzero" fill-opacity="1" d="M 228.070312 174.917969 L 228.070312 173.683594 L 235.238281 173.683594 L 235.238281 174.917969 Z M 244.128906 172.402344 L 239.890625 168.074219 L 244.128906 163.78125 L 245.945312 163.78125 L 241.738281 168.027344 L 241.738281 168.125 L 245.945312 172.402344 Z M 253.640625 173.683594 L 253.640625 163.683594 L 250.644531 163.683594 L 250.644531 162.464844 L 257.972656 162.464844 L 257.972656 163.683594 L 254.980469 163.683594 L 254.980469 173.683594 Z M 261.609375 173.683594 L 261.609375 162.464844 L 262.949219 162.464844 L 262.949219 167.304688 L 268.347656 167.304688 L 268.347656 162.464844 L 269.6875 162.464844 L 269.6875 173.683594 L 268.347656 173.683594 L 268.347656 168.523438 L 262.949219 168.523438 L 262.949219 173.683594 Z M 273.496094 173.683594 L 273.496094 162.464844 L 276.921875 162.464844 C 277.78125 162.464844 278.488281 162.609375 279.046875 162.898438 C 279.605469 163.1875 280.023438 163.582031 280.296875 164.074219 C 280.574219 164.574219 280.714844 165.136719 280.714844 165.765625 C 280.714844 166.503906 280.523438 167.152344 280.148438 167.714844 C 279.769531 168.273438 279.191406 168.667969 278.417969 168.894531 L 280.839844 173.683594 L 279.246094 173.683594 L 277 169.085938 L 274.835938 169.085938 L 274.835938 173.683594 Z M 274.835938 167.851562 L 276.875 167.851562 C 277.722656 167.851562 278.347656 167.652344 278.746094 167.265625 C 279.164062 166.855469 279.363281 166.355469 279.339844 165.765625 C 279.339844 165.125 279.148438 164.617188 278.761719 164.242188 C 278.375 163.871094 277.738281 163.683594 276.855469 163.683594 L 274.835938 163.683594 Z M 284.886719 173.683594 L 284.886719 162.464844 L 291.851562 162.464844 L 291.851562 163.683594 L 286.226562 163.683594 L 286.226562 167.417969 L 291.375 167.417969 L 291.375 168.636719 L 286.226562 168.636719 L 286.226562 172.464844 L 291.851562 172.464844 L 291.851562 173.683594 Z M 295.375 173.683594 L 298.859375 162.464844 L 300.40625 162.464844 L 303.878906 173.683594 L 302.414062 173.683594 L 301.601562 170.894531 L 297.648438 170.894531 L 296.839844 173.683594 Z M 299.59375 164.355469 L 297.984375 169.773438 L 301.269531 169.773438 L 299.65625 164.355469 Z M 310.289062 173.683594 L 310.289062 163.683594 L 307.292969 163.683594 L 307.292969 162.464844 L 314.621094 162.464844 L 314.621094 163.683594 L 311.625 163.683594 L 311.625 173.683594 Z M 228.054688 194.640625 L 228.054688 183.421875 L 231.765625 183.421875 C 232.613281 183.421875 233.308594 183.578125 233.851562 183.886719 C 234.394531 184.199219 234.789062 184.609375 235.046875 185.121094 C 235.304688 185.636719 235.429688 186.203125 235.429688 186.820312 C 235.429688 187.441406 235.304688 188.007812 235.046875 188.519531 C 234.777344 189.054688 234.378906 189.464844 233.851562 189.753906 C 233.308594 190.0625 232.613281 190.21875 231.765625 190.21875 L 229.390625 190.21875 L 229.390625 194.640625 Z M 229.390625 188.984375 L 231.734375 188.984375 C 232.519531 188.984375 233.105469 188.785156 233.488281 188.382812 C 233.871094 187.980469 234.058594 187.460938 234.058594 186.820312 C 234.085938 186.21875 233.894531 185.695312 233.488281 185.25 C 233.105469 184.84375 232.519531 184.640625 231.734375 184.640625 L 229.390625 184.640625 Z M 239.507812 194.640625 L 239.507812 183.421875 L 242.933594 183.421875 C 243.792969 183.421875 244.503906 183.570312 245.058594 183.855469 C 245.617188 184.144531 246.035156 184.539062 246.308594 185.035156 C 246.585938 185.53125 246.726562 186.09375 246.726562 186.726562 C 246.726562 187.460938 246.539062 188.109375 246.160156 188.671875 C 245.785156 189.230469 245.207031 189.625 244.433594 189.851562 L 246.855469 194.640625 L 245.261719 194.640625 L 243.015625 190.042969 L 240.847656 190.042969 L 240.847656 194.640625 Z M 240.847656 188.808594 L 242.886719 188.808594 C 243.738281 188.808594 244.359375 188.609375 244.757812 188.222656 C 245.175781 187.8125 245.375 187.3125 245.355469 186.726562 C 245.355469 186.082031 245.160156 185.574219 244.773438 185.203125 C 244.386719 184.828125 243.75 184.640625 242.871094 184.640625 L 240.847656 184.640625 Z M 250.902344 194.640625 L 250.902344 183.421875 L 257.863281 183.421875 L 257.863281 184.640625 L 252.238281 184.640625 L 252.238281 188.375 L 257.386719 188.375 L 257.386719 189.59375 L 252.238281 189.59375 L 252.238281 193.425781 L 257.863281 193.425781 L 257.863281 194.640625 Z M 264.84375 194.640625 L 261.289062 183.421875 L 262.722656 183.421875 L 265.640625 192.894531 L 268.554688 183.421875 L 270.007812 183.421875 L 266.4375 194.640625 Z M 273.558594 194.640625 L 273.558594 183.421875 L 280.519531 183.421875 L 280.519531 184.640625 L 274.898438 184.640625 L 274.898438 188.375 L 280.042969 188.375 L 280.042969 189.59375 L 274.898438 189.59375 L 274.898438 193.425781 L 280.519531 193.425781 L 280.519531 194.640625 Z M 284.425781 194.640625 L 284.425781 183.421875 L 285.796875 183.421875 L 290.863281 192.289062 L 290.863281 183.421875 L 292.183594 183.421875 L 292.183594 194.640625 L 290.800781 194.640625 L 285.734375 185.78125 L 285.734375 194.640625 Z M 298.957031 194.640625 L 298.957031 184.640625 L 295.960938 184.640625 L 295.960938 183.421875 L 303.289062 183.421875 L 303.289062 184.640625 L 300.292969 184.640625 L 300.292969 194.640625 Z M 307.753906 194.640625 L 307.753906 193.472656 L 310.289062 193.472656 L 310.289062 184.59375 L 307.753906 184.59375 L 307.753906 183.421875 L 314.15625 183.421875 L 314.15625 184.59375 L 311.625 184.59375 L 311.625 193.472656 L 314.15625 193.472656 L 314.15625 194.640625 Z M 322.285156 194.835938 C 321.378906 194.835938 320.605469 194.59375 319.957031 194.113281 C 319.265625 193.582031 318.769531 192.90625 318.46875 192.085938 C 318.125 191.214844 317.953125 190.195312 317.953125 189.03125 C 317.953125 187.867188 318.121094 186.851562 318.46875 185.980469 C 318.8125 185.109375 319.308594 184.433594 319.957031 183.949219 C 320.605469 183.472656 321.378906 183.230469 322.285156 183.230469 C 323.1875 183.230469 323.960938 183.472656 324.609375 183.949219 C 325.257812 184.433594 325.753906 185.109375 326.101562 185.980469 C 326.445312 186.851562 326.617188 187.867188 326.617188 189.03125 C 326.617188 190.195312 326.445312 191.214844 326.101562 192.085938 C 325.753906 192.957031 325.257812 193.632812 324.609375 194.113281 C 323.960938 194.59375 323.1875 194.835938 322.28125 194.835938 Z M 322.285156 193.566406 C 323.167969 193.566406 323.878906 193.171875 324.425781 192.382812 C 324.972656 191.59375 325.246094 190.476562 325.246094 189.03125 C 325.246094 187.589844 324.972656 186.472656 324.425781 185.683594 C 323.878906 184.894531 323.164062 184.5 322.285156 184.5 C 321.390625 184.5 320.675781 184.894531 320.132812 185.683594 C 319.59375 186.472656 319.320312 187.589844 319.320312 189.03125 C 319.320312 190.476562 319.589844 191.59375 320.132812 192.382812 C 320.675781 193.171875 321.390625 193.570312 322.285156 193.570312 Z M 329.742188 194.640625 L 329.742188 183.421875 L 331.113281 183.421875 L 336.179688 192.289062 L 336.179688 183.421875 L 337.5 183.421875 L 337.5 194.640625 L 336.113281 194.640625 L 331.050781 185.78125 L 331.050781 194.640625 Z M 231.734375 215.792969 C 230.832031 215.792969 230.054688 215.550781 229.398438 215.070312 C 228.707031 214.542969 228.207031 213.867188 227.902344 213.050781 C 227.554688 212.1875 227.382812 211.167969 227.382812 209.988281 C 227.382812 208.828125 227.554688 207.808594 227.902344 206.9375 C 228.246094 206.066406 228.746094 205.390625 229.398438 204.910156 C 230.054688 204.429688 230.832031 204.1875 231.734375 204.1875 C 232.882812 204.1875 233.804688 204.507812 234.503906 205.144531 C 235.207031 205.777344 235.613281 206.625 235.730469 207.683594 L 234.25 207.683594 C 234.15625 207.066406 233.890625 206.539062 233.457031 206.097656 C 233.027344 205.667969 232.457031 205.457031 231.734375 205.457031 C 230.8125 205.457031 230.082031 205.859375 229.550781 206.664062 C 229.019531 207.46875 228.753906 208.578125 228.753906 209.988281 C 228.753906 211.410156 229.019531 212.523438 229.550781 213.324219 C 230.082031 214.125 230.808594 214.527344 231.730469 214.527344 C 232.488281 214.527344 233.066406 214.320312 233.476562 213.917969 C 233.886719 213.511719 234.144531 212.988281 234.25 212.347656 L 235.730469 212.347656 C 235.558594 213.414062 235.140625 214.253906 234.464844 214.871094 C 233.789062 215.484375 232.882812 215.792969 231.734375 215.792969 Z M 239.574219 215.597656 L 239.574219 204.378906 L 246.535156 204.378906 L 246.535156 205.597656 L 240.910156 205.597656 L 240.910156 209.335938 L 246.058594 209.335938 L 246.058594 210.550781 L 240.910156 210.550781 L 240.910156 214.382812 L 246.535156 214.382812 L 246.535156 215.597656 Z M 250.441406 215.597656 L 250.441406 204.378906 L 251.808594 204.378906 L 256.875 213.246094 L 256.875 204.378906 L 258.199219 204.378906 L 258.199219 215.597656 L 256.8125 215.597656 L 251.746094 206.738281 L 251.746094 215.597656 Z M 264.972656 215.597656 L 264.972656 205.597656 L 261.976562 205.597656 L 261.976562 204.378906 L 269.304688 204.378906 L 269.304688 205.597656 L 266.308594 205.597656 L 266.308594 215.597656 Z M 273.558594 215.597656 L 273.558594 204.378906 L 280.519531 204.378906 L 280.519531 205.597656 L 274.898438 205.597656 L 274.898438 209.335938 L 280.042969 209.335938 L 280.042969 210.550781 L 274.898438 210.550781 L 274.898438 214.382812 L 280.519531 214.382812 L 280.519531 215.597656 Z M 284.824219 215.597656 L 284.824219 204.378906 L 288.25 204.378906 C 289.109375 204.378906 289.820312 204.523438 290.375 204.8125 C 290.933594 205.101562 291.351562 205.496094 291.625 205.992188 C 291.902344 206.488281 292.042969 207.050781 292.042969 207.683594 C 292.042969 208.417969 291.855469 209.066406 291.476562 209.628906 C 291.097656 210.191406 290.519531 210.582031 289.75 210.804688 L 292.167969 215.597656 L 290.578125 215.597656 L 288.328125 211 L 286.164062 211 L 286.164062 215.597656 Z M 286.164062 209.765625 L 288.203125 209.765625 C 289.050781 209.765625 289.675781 209.570312 290.074219 209.179688 C 290.492188 208.769531 290.691406 208.269531 290.671875 207.683594 C 290.671875 207.042969 290.476562 206.535156 290.089844 206.160156 C 289.703125 205.785156 289.066406 205.597656 288.1875 205.597656 L 286.164062 205.597656 Z M 286.164062 209.765625" fill="#989898"/></g><g clip-path="url(#0cb7a88513)"><path fill-rule="nonzero" fill-opacity="1" d="M 58.75 215.597656 L 67.25 215.597656 L 67.25 167.230469 C 67.246094 166.972656 67.292969 166.726562 67.386719 166.488281 C 67.484375 166.25 67.621094 166.039062 67.800781 165.855469 C 67.984375 165.675781 68.191406 165.535156 68.429688 165.441406 C 68.664062 165.34375 68.910156 165.296875 69.167969 165.300781 L 88.5 165.300781 L 88.5 156.917969 L 69.167969 156.917969 C 68.910156 156.914062 68.664062 156.960938 68.429688 157.058594 C 68.191406 157.152344 67.984375 157.292969 67.800781 157.472656 C 67.621094 157.65625 67.484375 157.867188 67.386719 158.105469 C 67.292969 158.34375 67.246094 158.589844 67.25 158.847656 L 67.25 163.375 C 67.253906 163.628906 67.207031 163.878906 67.113281 164.117188 C 67.015625 164.355469 66.878906 164.5625 66.695312 164.746094 C 66.515625 164.925781 66.308594 165.066406 66.070312 165.164062 C 65.835938 165.257812 65.589844 165.304688 65.332031 165.300781 L 60.667969 165.300781 C 60.410156 165.304688 60.164062 165.257812 59.929688 165.164062 C 59.691406 165.066406 59.484375 164.925781 59.300781 164.746094 C 59.121094 164.5625 58.984375 164.355469 58.886719 164.117188 C 58.792969 163.878906 58.746094 163.628906 58.75 163.375 L 58.75 158.847656 C 58.753906 158.589844 58.707031 158.34375 58.613281 158.105469 C 58.515625 157.867188 58.378906 157.65625 58.195312 157.472656 C 58.015625 157.292969 57.808594 157.152344 57.570312 157.058594 C 57.335938 156.960938 57.089844 156.914062 56.832031 156.917969 L 37.5 156.917969 L 37.5 165.300781 L 56.832031 165.300781 C 57.089844 165.296875 57.335938 165.34375 57.570312 165.441406 C 57.808594 165.535156 58.015625 165.675781 58.195312 165.855469 C 58.378906 166.039062 58.515625 166.25 58.613281 166.488281 C 58.707031 166.726562 58.753906 166.972656 58.75 167.230469 Z M 139.5 188.523438 L 139.5 183.996094 C 139.496094 183.738281 139.539062 183.492188 139.636719 183.253906 C 139.730469 183.015625 139.871094 182.804688 140.050781 182.625 C 140.230469 182.441406 140.441406 182.300781 140.675781 182.207031 C 140.914062 182.109375 141.160156 182.0625 141.414062 182.066406 L 146.082031 182.066406 C 146.335938 182.070312 146.582031 182.023438 146.820312 181.929688 C 147.054688 181.832031 147.265625 181.691406 147.445312 181.511719 C 147.625 181.328125 147.765625 181.121094 147.859375 180.882812 C 147.957031 180.644531 148.003906 180.394531 148 180.140625 L 148 167.230469 C 148.003906 166.972656 147.957031 166.726562 147.859375 166.488281 C 147.765625 166.25 147.625 166.039062 147.445312 165.855469 C 147.265625 165.675781 147.054688 165.535156 146.820312 165.441406 C 146.582031 165.34375 146.335938 165.296875 146.082031 165.300781 L 141.414062 165.300781 C 141.160156 165.304688 140.914062 165.257812 140.675781 165.164062 C 140.441406 165.066406 140.230469 164.925781 140.050781 164.746094 C 139.871094 164.5625 139.730469 164.355469 139.636719 164.117188 C 139.539062 163.878906 139.496094 163.628906 139.5 163.375 L 139.5 158.847656 C 139.503906 158.589844 139.457031 158.34375 139.359375 158.105469 C 139.265625 157.867188 139.125 157.65625 138.945312 157.472656 C 138.765625 157.292969 138.554688 157.152344 138.320312 157.058594 C 138.082031 156.960938 137.835938 156.914062 137.582031 156.917969 L 107.414062 156.917969 C 107.160156 156.914062 106.914062 156.960938 106.675781 157.058594 C 106.441406 157.152344 106.230469 157.292969 106.050781 157.472656 C 105.871094 157.65625 105.734375 157.867188 105.636719 158.105469 C 105.539062 158.34375 105.496094 158.589844 105.5 158.847656 L 105.5 163.375 C 105.503906 163.628906 105.457031 163.878906 105.359375 164.117188 C 105.265625 164.355469 105.128906 164.5625 104.945312 164.746094 C 104.765625 164.925781 104.558594 165.066406 104.320312 165.164062 C 104.082031 165.257812 103.835938 165.304688 103.582031 165.300781 L 98.914062 165.300781 C 98.660156 165.296875 98.414062 165.34375 98.175781 165.441406 C 97.941406 165.535156 97.730469 165.675781 97.550781 165.855469 C 97.371094 166.039062 97.234375 166.25 97.136719 166.488281 C 97.039062 166.726562 96.996094 166.972656 97 167.230469 L 97 215.597656 L 105.5 215.597656 L 105.5 167.230469 C 105.496094 166.972656 105.539062 166.726562 105.636719 166.488281 C 105.734375 166.25 105.871094 166.039062 106.050781 165.855469 C 106.230469 165.675781 106.441406 165.535156 106.675781 165.441406 C 106.914062 165.34375 107.160156 165.296875 107.414062 165.300781 L 137.582031 165.300781 C 137.835938 165.296875 138.082031 165.34375 138.320312 165.441406 C 138.554688 165.535156 138.765625 165.675781 138.945312 165.855469 C 139.125 166.039062 139.265625 166.25 139.359375 166.488281 C 139.457031 166.726562 139.503906 166.972656 139.5 167.230469 L 139.5 180.140625 C 139.503906 180.394531 139.457031 180.644531 139.359375 180.882812 C 139.265625 181.121094 139.125 181.328125 138.945312 181.511719 C 138.765625 181.691406 138.554688 181.832031 138.320312 181.929688 C 138.082031 182.023438 137.835938 182.070312 137.582031 182.066406 L 113.914062 182.066406 L 113.914062 190.449219 L 137.582031 190.449219 C 137.835938 190.453125 138.082031 190.40625 138.320312 190.3125 C 138.554688 190.214844 138.765625 190.078125 138.945312 189.894531 C 139.125 189.710938 139.265625 189.503906 139.359375 189.265625 C 139.457031 189.027344 139.503906 188.777344 139.5 188.523438 Z M 205.582031 165.300781 L 200.914062 165.300781 C 200.660156 165.304688 200.414062 165.257812 200.175781 165.164062 C 199.9375 165.066406 199.730469 164.925781 199.550781 164.746094 C 199.371094 164.5625 199.230469 164.355469 199.136719 164.117188 C 199.039062 163.878906 198.992188 163.628906 198.996094 163.375 L 198.996094 158.847656 C 199 158.589844 198.957031 158.34375 198.859375 158.105469 C 198.761719 157.867188 198.625 157.65625 198.445312 157.472656 C 198.265625 157.292969 198.054688 157.152344 197.820312 157.058594 C 197.582031 156.960938 197.335938 156.914062 197.082031 156.917969 L 166.914062 156.917969 C 166.660156 156.914062 166.414062 156.960938 166.175781 157.058594 C 165.941406 157.152344 165.730469 157.292969 165.550781 157.472656 C 165.371094 157.65625 165.230469 157.867188 165.136719 158.105469 C 165.039062 158.34375 164.992188 158.589844 164.996094 158.847656 L 164.996094 163.375 C 165 163.628906 164.957031 163.878906 164.859375 164.117188 C 164.765625 164.355469 164.625 164.5625 164.445312 164.746094 C 164.265625 164.925781 164.054688 165.066406 163.820312 165.164062 C 163.582031 165.257812 163.335938 165.304688 163.082031 165.300781 L 158.414062 165.300781 C 158.160156 165.296875 157.914062 165.34375 157.675781 165.441406 C 157.441406 165.535156 157.230469 165.675781 157.050781 165.855469 C 156.871094 166.039062 156.730469 166.25 156.636719 166.488281 C 156.539062 166.726562 156.492188 166.972656 156.496094 167.230469 L 156.496094 205.289062 C 156.496094 206.378906 157.332031 207.214844 158.414062 207.214844 L 163.082031 207.214844 C 163.335938 207.210938 163.582031 207.257812 163.820312 207.355469 C 164.054688 207.453125 164.265625 207.589844 164.445312 207.773438 C 164.625 207.953125 164.765625 208.164062 164.859375 208.402344 C 164.957031 208.640625 165 208.886719 164.996094 209.144531 L 164.996094 213.671875 C 164.996094 214.761719 165.832031 215.597656 166.914062 215.597656 L 197.082031 215.597656 C 197.335938 215.601562 197.582031 215.558594 197.820312 215.460938 C 198.054688 215.363281 198.265625 215.226562 198.445312 215.042969 C 198.625 214.863281 198.761719 214.652344 198.859375 214.414062 C 198.957031 214.175781 199 213.929688 198.996094 213.671875 L 198.996094 209.144531 C 198.992188 208.886719 199.039062 208.640625 199.136719 208.402344 C 199.230469 208.164062 199.371094 207.953125 199.550781 207.773438 C 199.730469 207.589844 199.9375 207.453125 200.175781 207.355469 C 200.414062 207.257812 200.660156 207.210938 200.914062 207.214844 L 205.582031 207.214844 C 205.835938 207.21875 206.082031 207.175781 206.320312 207.078125 C 206.554688 206.980469 206.765625 206.84375 206.945312 206.660156 C 207.125 206.480469 207.261719 206.269531 207.359375 206.03125 C 207.457031 205.792969 207.5 205.546875 207.496094 205.289062 L 207.496094 198.832031 L 198.996094 198.832031 L 198.996094 205.289062 C 199 205.546875 198.957031 205.792969 198.859375 206.03125 C 198.761719 206.269531 198.625 206.480469 198.445312 206.660156 C 198.265625 206.84375 198.054688 206.980469 197.820312 207.078125 C 197.582031 207.175781 197.335938 207.21875 197.082031 207.214844 L 166.914062 207.214844 C 166.660156 207.21875 166.414062 207.175781 166.175781 207.078125 C 165.941406 206.980469 165.730469 206.84375 165.550781 206.660156 C 165.371094 206.480469 165.230469 206.269531 165.136719 206.03125 C 165.039062 205.792969 164.992188 205.546875 164.996094 205.289062 L 164.996094 167.230469 C 164.992188 166.972656 165.039062 166.726562 165.136719 166.488281 C 165.230469 166.25 165.371094 166.039062 165.550781 165.855469 C 165.730469 165.675781 165.941406 165.535156 166.175781 165.441406 C 166.414062 165.34375 166.660156 165.296875 166.914062 165.300781 L 197.082031 165.300781 C 197.335938 165.296875 197.582031 165.34375 197.820312 165.441406 C 198.054688 165.535156 198.265625 165.675781 198.445312 165.855469 C 198.625 166.039062 198.761719 166.25 198.859375 166.488281 C 198.957031 166.726562 199 166.972656 198.996094 167.230469 L 198.996094 173.683594 L 207.496094 173.683594 L 207.496094 167.230469 C 207.5 166.972656 207.457031 166.726562 207.359375 166.488281 C 207.261719 166.25 207.125 166.039062 206.945312 165.855469 C 206.765625 165.675781 206.554688 165.535156 206.320312 165.441406 C 206.082031 165.34375 205.835938 165.296875 205.582031 165.300781 Z M 205.582031 165.300781" fill="#1b1c1d"/></g></svg>