<svg version="1.0" preserveAspectRatio="xMidYMid meet" viewBox="34.5 146.24999649 307.5 83.24999800200001" zoomAndPan="magnify" xmlns:xlink="http://www.w3.org/1999/xlink" xmlns="http://www.w3.org/2000/svg" style="max-height: 500px" width="307.5" height="83.24999800200001"><defs><clipPath id="de73873407"><path clip-rule="nonzero" d="M 227 162 L 337.5 162 L 337.5 215.980469 L 227 215.980469 Z M 227 162"/></clipPath><clipPath id="1eb22071bd"><path clip-rule="nonzero" d="M 37.5 156.730469 L 208 156.730469 L 208 215.980469 L 37.5 215.980469 Z M 37.5 156.730469"/></clipPath></defs><g clip-path="url(#de73873407)"><path fill-rule="nonzero" fill-opacity="1" d="M 228.070312 174.8125 L 228.070312 173.582031 L 235.238281 173.582031 L 235.238281 174.8125 Z M 244.128906 172.308594 L 239.890625 168.007812 L 244.128906 163.738281 L 245.945312 163.738281 L 241.738281 167.960938 L 241.738281 168.058594 L 245.945312 172.308594 Z M 253.640625 173.582031 L 253.640625 163.644531 L 250.644531 163.644531 L 250.644531 162.433594 L 257.972656 162.433594 L 257.972656 163.644531 L 254.980469 163.644531 L 254.980469 173.582031 Z M 261.609375 173.582031 L 261.609375 162.433594 L 262.949219 162.433594 L 262.949219 167.242188 L 268.347656 167.242188 L 268.347656 162.433594 L 269.6875 162.433594 L 269.6875 173.582031 L 268.347656 173.582031 L 268.347656 168.453125 L 262.949219 168.453125 L 262.949219 173.582031 Z M 273.496094 173.582031 L 273.496094 162.433594 L 276.921875 162.433594 C 277.78125 162.433594 278.488281 162.574219 279.046875 162.859375 C 279.605469 163.148438 280.023438 163.539062 280.296875 164.03125 C 280.574219 164.527344 280.714844 165.085938 280.714844 165.714844 C 280.714844 166.445312 280.523438 167.089844 280.148438 167.648438 C 279.769531 168.207031 279.191406 168.597656 278.417969 168.820312 L 280.839844 173.582031 L 279.246094 173.582031 L 277 169.011719 L 274.835938 169.011719 L 274.835938 173.582031 Z M 274.835938 167.785156 L 276.875 167.785156 C 277.722656 167.785156 278.347656 167.589844 278.746094 167.203125 C 279.164062 166.792969 279.363281 166.296875 279.339844 165.714844 C 279.339844 165.078125 279.148438 164.570312 278.761719 164.199219 C 278.375 163.828125 277.738281 163.644531 276.855469 163.644531 L 274.835938 163.644531 Z M 284.886719 173.582031 L 284.886719 162.433594 L 291.851562 162.433594 L 291.851562 163.644531 L 286.226562 163.644531 L 286.226562 167.355469 L 291.375 167.355469 L 291.375 168.566406 L 286.226562 168.566406 L 286.226562 172.375 L 291.851562 172.375 L 291.851562 173.582031 Z M 295.375 173.582031 L 298.859375 162.433594 L 300.40625 162.433594 L 303.878906 173.582031 L 302.414062 173.582031 L 301.601562 170.8125 L 297.648438 170.8125 L 296.839844 173.582031 Z M 299.59375 164.3125 L 297.984375 169.695312 L 301.269531 169.695312 L 299.65625 164.3125 Z M 310.289062 173.582031 L 310.289062 163.644531 L 307.292969 163.644531 L 307.292969 162.433594 L 314.621094 162.433594 L 314.621094 163.644531 L 311.625 163.644531 L 311.625 173.582031 Z M 228.054688 194.417969 L 228.054688 183.265625 L 231.765625 183.265625 C 232.613281 183.265625 233.308594 183.417969 233.851562 183.726562 C 234.394531 184.035156 234.789062 184.445312 235.046875 184.953125 C 235.304688 185.464844 235.429688 186.027344 235.429688 186.640625 C 235.429688 187.257812 235.304688 187.820312 235.046875 188.332031 C 234.777344 188.863281 234.378906 189.273438 233.851562 189.554688 C 233.308594 189.867188 232.613281 190.019531 231.765625 190.019531 L 229.390625 190.019531 L 229.390625 194.417969 Z M 229.390625 188.792969 L 231.734375 188.792969 C 232.519531 188.792969 233.105469 188.597656 233.488281 188.195312 C 233.871094 187.796875 234.058594 187.28125 234.058594 186.640625 C 234.085938 186.042969 233.894531 185.523438 233.488281 185.082031 C 233.105469 184.675781 232.519531 184.476562 231.734375 184.476562 L 229.390625 184.476562 Z M 239.507812 194.417969 L 239.507812 183.265625 L 242.933594 183.265625 C 243.792969 183.265625 244.503906 183.410156 245.058594 183.695312 C 245.617188 183.980469 246.035156 184.371094 246.308594 184.867188 C 246.585938 185.359375 246.726562 185.917969 246.726562 186.546875 C 246.726562 187.28125 246.539062 187.925781 246.160156 188.484375 C 245.785156 189.039062 245.207031 189.429688 244.433594 189.65625 L 246.855469 194.417969 L 245.261719 194.417969 L 243.015625 189.84375 L 240.847656 189.84375 L 240.847656 194.417969 Z M 240.847656 188.617188 L 242.886719 188.617188 C 243.738281 188.617188 244.359375 188.421875 244.757812 188.035156 C 245.175781 187.628906 245.375 187.132812 245.355469 186.546875 C 245.355469 185.910156 245.160156 185.40625 244.773438 185.035156 C 244.386719 184.660156 243.75 184.476562 242.871094 184.476562 L 240.847656 184.476562 Z M 250.902344 194.417969 L 250.902344 183.265625 L 257.863281 183.265625 L 257.863281 184.476562 L 252.238281 184.476562 L 252.238281 188.1875 L 257.386719 188.1875 L 257.386719 189.398438 L 252.238281 189.398438 L 252.238281 193.207031 L 257.863281 193.207031 L 257.863281 194.417969 Z M 264.84375 194.417969 L 261.289062 183.265625 L 262.722656 183.265625 L 265.640625 192.679688 L 268.554688 183.265625 L 270.007812 183.265625 L 266.4375 194.417969 Z M 273.558594 194.417969 L 273.558594 183.265625 L 280.519531 183.265625 L 280.519531 184.476562 L 274.898438 184.476562 L 274.898438 188.1875 L 280.042969 188.1875 L 280.042969 189.398438 L 274.898438 189.398438 L 274.898438 193.207031 L 280.519531 193.207031 L 280.519531 194.417969 Z M 284.425781 194.417969 L 284.425781 183.265625 L 285.796875 183.265625 L 290.863281 192.078125 L 290.863281 183.265625 L 292.183594 183.265625 L 292.183594 194.417969 L 290.800781 194.417969 L 285.734375 185.609375 L 285.734375 194.417969 Z M 298.957031 194.417969 L 298.957031 184.476562 L 295.960938 184.476562 L 295.960938 183.265625 L 303.289062 183.265625 L 303.289062 184.476562 L 300.292969 184.476562 L 300.292969 194.417969 Z M 307.753906 194.417969 L 307.753906 193.253906 L 310.289062 193.253906 L 310.289062 184.429688 L 307.753906 184.429688 L 307.753906 183.265625 L 314.15625 183.265625 L 314.15625 184.429688 L 311.625 184.429688 L 311.625 193.253906 L 314.15625 193.253906 L 314.15625 194.417969 Z M 322.285156 194.609375 C 321.378906 194.609375 320.605469 194.367188 319.957031 193.890625 C 319.265625 193.363281 318.769531 192.691406 318.46875 191.875 C 318.125 191.011719 317.953125 189.996094 317.953125 188.839844 C 317.953125 187.683594 318.121094 186.671875 318.46875 185.808594 C 318.8125 184.941406 319.308594 184.265625 319.957031 183.789062 C 320.605469 183.3125 321.378906 183.074219 322.285156 183.074219 C 323.1875 183.074219 323.960938 183.3125 324.609375 183.789062 C 325.257812 184.265625 325.753906 184.941406 326.101562 185.808594 C 326.445312 186.671875 326.617188 187.683594 326.617188 188.839844 C 326.617188 189.996094 326.445312 191.011719 326.101562 191.875 C 325.753906 192.742188 325.257812 193.410156 324.609375 193.890625 C 323.960938 194.367188 323.1875 194.609375 322.28125 194.609375 Z M 322.285156 193.347656 C 323.167969 193.347656 323.878906 192.957031 324.425781 192.171875 C 324.972656 191.386719 325.246094 190.273438 325.246094 188.839844 C 325.246094 187.40625 324.972656 186.296875 324.425781 185.511719 C 323.878906 184.726562 323.164062 184.332031 322.285156 184.332031 C 321.390625 184.332031 320.675781 184.726562 320.132812 185.511719 C 319.59375 186.296875 319.320312 187.40625 319.320312 188.839844 C 319.320312 190.273438 319.589844 191.386719 320.132812 192.167969 C 320.675781 192.957031 321.390625 193.351562 322.285156 193.351562 Z M 329.742188 194.417969 L 329.742188 183.265625 L 331.113281 183.265625 L 336.179688 192.078125 L 336.179688 183.265625 L 337.5 183.265625 L 337.5 194.417969 L 336.113281 194.417969 L 331.050781 185.609375 L 331.050781 194.417969 Z M 231.734375 215.441406 C 230.832031 215.441406 230.054688 215.199219 229.398438 214.722656 C 228.707031 214.199219 228.207031 213.53125 227.902344 212.714844 C 227.554688 211.859375 227.382812 210.84375 227.382812 209.675781 C 227.382812 208.515625 227.554688 207.503906 227.902344 206.640625 C 228.246094 205.773438 228.746094 205.101562 229.398438 204.625 C 230.054688 204.148438 230.832031 203.90625 231.734375 203.90625 C 232.882812 203.90625 233.804688 204.222656 234.503906 204.855469 C 235.207031 205.488281 235.613281 206.328125 235.730469 207.378906 L 234.25 207.378906 C 234.15625 206.769531 233.890625 206.242188 233.457031 205.804688 C 233.027344 205.378906 232.457031 205.167969 231.734375 205.167969 C 230.8125 205.167969 230.082031 205.566406 229.550781 206.367188 C 229.019531 207.167969 228.753906 208.273438 228.753906 209.675781 C 228.753906 211.085938 229.019531 212.191406 229.550781 212.988281 C 230.082031 213.785156 230.808594 214.183594 231.730469 214.183594 C 232.488281 214.183594 233.066406 213.980469 233.476562 213.578125 C 233.886719 213.175781 234.144531 212.652344 234.25 212.015625 L 235.730469 212.015625 C 235.558594 213.078125 235.140625 213.914062 234.464844 214.523438 C 233.789062 215.136719 232.882812 215.441406 231.734375 215.441406 Z M 239.574219 215.25 L 239.574219 204.097656 L 246.535156 204.097656 L 246.535156 205.308594 L 240.910156 205.308594 L 240.910156 209.023438 L 246.058594 209.023438 L 246.058594 210.234375 L 240.910156 210.234375 L 240.910156 214.039062 L 246.535156 214.039062 L 246.535156 215.25 Z M 250.441406 215.25 L 250.441406 204.097656 L 251.808594 204.097656 L 256.875 212.910156 L 256.875 204.097656 L 258.199219 204.097656 L 258.199219 215.25 L 256.8125 215.25 L 251.746094 206.441406 L 251.746094 215.25 Z M 264.972656 215.25 L 264.972656 205.308594 L 261.976562 205.308594 L 261.976562 204.097656 L 269.304688 204.097656 L 269.304688 205.308594 L 266.308594 205.308594 L 266.308594 215.25 Z M 273.558594 215.25 L 273.558594 204.097656 L 280.519531 204.097656 L 280.519531 205.308594 L 274.898438 205.308594 L 274.898438 209.023438 L 280.042969 209.023438 L 280.042969 210.234375 L 274.898438 210.234375 L 274.898438 214.039062 L 280.519531 214.039062 L 280.519531 215.25 Z M 284.824219 215.25 L 284.824219 204.097656 L 288.25 204.097656 C 289.109375 204.097656 289.820312 204.238281 290.375 204.527344 C 290.933594 204.8125 291.351562 205.207031 291.625 205.699219 C 291.902344 206.195312 292.042969 206.753906 292.042969 207.378906 C 292.042969 208.113281 291.855469 208.757812 291.476562 209.316406 C 291.097656 209.871094 290.519531 210.261719 289.75 210.484375 L 292.167969 215.25 L 290.578125 215.25 L 288.328125 210.675781 L 286.164062 210.675781 L 286.164062 215.25 Z M 286.164062 209.449219 L 288.203125 209.449219 C 289.050781 209.449219 289.675781 209.253906 290.074219 208.871094 C 290.492188 208.460938 290.691406 207.964844 290.671875 207.378906 C 290.671875 206.742188 290.476562 206.238281 290.089844 205.867188 C 289.703125 205.496094 289.066406 205.308594 288.1875 205.308594 L 286.164062 205.308594 Z M 286.164062 209.449219" fill="#989898"/></g><g clip-path="url(#1eb22071bd)"><path fill-rule="nonzero" fill-opacity="1" d="M 58.75 215.25 L 67.25 215.25 L 67.25 167.167969 C 67.246094 166.910156 67.292969 166.664062 67.386719 166.429688 C 67.484375 166.191406 67.621094 165.984375 67.800781 165.804688 C 67.984375 165.621094 68.191406 165.484375 68.429688 165.386719 C 68.664062 165.292969 68.910156 165.246094 69.167969 165.25 L 88.5 165.25 L 88.5 156.917969 L 69.167969 156.917969 C 68.910156 156.914062 68.664062 156.960938 68.429688 157.054688 C 68.191406 157.152344 67.984375 157.289062 67.800781 157.46875 C 67.621094 157.652344 67.484375 157.859375 67.386719 158.097656 C 67.292969 158.332031 67.246094 158.578125 67.25 158.835938 L 67.25 163.335938 C 67.253906 163.589844 67.207031 163.835938 67.113281 164.070312 C 67.015625 164.308594 66.878906 164.515625 66.695312 164.699219 C 66.515625 164.878906 66.308594 165.015625 66.070312 165.113281 C 65.835938 165.207031 65.589844 165.253906 65.332031 165.25 L 60.667969 165.25 C 60.410156 165.253906 60.164062 165.207031 59.929688 165.113281 C 59.691406 165.015625 59.484375 164.878906 59.300781 164.699219 C 59.121094 164.515625 58.984375 164.308594 58.886719 164.070312 C 58.792969 163.835938 58.746094 163.589844 58.75 163.335938 L 58.75 158.835938 C 58.753906 158.578125 58.707031 158.332031 58.613281 158.097656 C 58.515625 157.859375 58.378906 157.652344 58.195312 157.46875 C 58.015625 157.289062 57.808594 157.152344 57.570312 157.054688 C 57.335938 156.960938 57.089844 156.914062 56.832031 156.917969 L 37.5 156.917969 L 37.5 165.25 L 56.832031 165.25 C 57.089844 165.246094 57.335938 165.292969 57.570312 165.386719 C 57.808594 165.484375 58.015625 165.621094 58.195312 165.804688 C 58.378906 165.984375 58.515625 166.191406 58.613281 166.429688 C 58.707031 166.664062 58.753906 166.910156 58.75 167.167969 Z M 139.5 188.332031 L 139.5 183.832031 C 139.496094 183.578125 139.539062 183.332031 139.636719 183.09375 C 139.730469 182.859375 139.871094 182.648438 140.050781 182.46875 C 140.230469 182.289062 140.441406 182.152344 140.675781 182.054688 C 140.914062 181.957031 141.160156 181.914062 141.414062 181.917969 L 146.082031 181.917969 C 146.335938 181.921875 146.582031 181.875 146.820312 181.777344 C 147.054688 181.683594 147.265625 181.546875 147.445312 181.363281 C 147.625 181.183594 147.765625 180.976562 147.859375 180.738281 C 147.957031 180.5 148.003906 180.253906 148 180 L 148 167.167969 C 148.003906 166.910156 147.957031 166.664062 147.859375 166.429688 C 147.765625 166.191406 147.625 165.984375 147.445312 165.804688 C 147.265625 165.621094 147.054688 165.484375 146.820312 165.386719 C 146.582031 165.292969 146.335938 165.246094 146.082031 165.25 L 141.414062 165.25 C 141.160156 165.253906 140.914062 165.207031 140.675781 165.113281 C 140.441406 165.015625 140.230469 164.878906 140.050781 164.699219 C 139.871094 164.515625 139.730469 164.308594 139.636719 164.070312 C 139.539062 163.835938 139.496094 163.589844 139.5 163.335938 L 139.5 158.835938 C 139.503906 158.578125 139.457031 158.332031 139.359375 158.097656 C 139.265625 157.859375 139.125 157.652344 138.945312 157.46875 C 138.765625 157.289062 138.554688 157.152344 138.320312 157.054688 C 138.082031 156.960938 137.835938 156.914062 137.582031 156.917969 L 107.414062 156.917969 C 107.160156 156.914062 106.914062 156.960938 106.675781 157.054688 C 106.441406 157.152344 106.230469 157.289062 106.050781 157.46875 C 105.871094 157.652344 105.734375 157.859375 105.636719 158.097656 C 105.539062 158.332031 105.496094 158.578125 105.5 158.835938 L 105.5 163.335938 C 105.503906 163.589844 105.457031 163.835938 105.359375 164.070312 C 105.265625 164.308594 105.128906 164.515625 104.945312 164.699219 C 104.765625 164.878906 104.558594 165.015625 104.320312 165.113281 C 104.082031 165.207031 103.835938 165.253906 103.582031 165.25 L 98.914062 165.25 C 98.660156 165.246094 98.414062 165.292969 98.175781 165.386719 C 97.941406 165.484375 97.730469 165.621094 97.550781 165.804688 C 97.371094 165.984375 97.234375 166.191406 97.136719 166.429688 C 97.039062 166.664062 96.996094 166.910156 97 167.167969 L 97 215.25 L 105.5 215.25 L 105.5 167.167969 C 105.496094 166.910156 105.539062 166.664062 105.636719 166.429688 C 105.734375 166.191406 105.871094 165.984375 106.050781 165.804688 C 106.230469 165.621094 106.441406 165.484375 106.675781 165.386719 C 106.914062 165.292969 107.160156 165.246094 107.414062 165.25 L 137.582031 165.25 C 137.835938 165.246094 138.082031 165.292969 138.320312 165.386719 C 138.554688 165.484375 138.765625 165.621094 138.945312 165.804688 C 139.125 165.984375 139.265625 166.191406 139.359375 166.429688 C 139.457031 166.664062 139.503906 166.910156 139.5 167.167969 L 139.5 180 C 139.503906 180.253906 139.457031 180.5 139.359375 180.738281 C 139.265625 180.976562 139.125 181.183594 138.945312 181.363281 C 138.765625 181.546875 138.554688 181.683594 138.320312 181.777344 C 138.082031 181.875 137.835938 181.921875 137.582031 181.917969 L 113.914062 181.917969 L 113.914062 190.25 L 137.582031 190.25 C 137.835938 190.253906 138.082031 190.207031 138.320312 190.113281 C 138.554688 190.015625 138.765625 189.878906 138.945312 189.699219 C 139.125 189.515625 139.265625 189.308594 139.359375 189.070312 C 139.457031 188.835938 139.503906 188.589844 139.5 188.332031 Z M 205.582031 165.25 L 200.914062 165.25 C 200.660156 165.253906 200.414062 165.207031 200.175781 165.113281 C 199.9375 165.015625 199.730469 164.878906 199.550781 164.699219 C 199.371094 164.515625 199.230469 164.308594 199.136719 164.070312 C 199.039062 163.835938 198.992188 163.589844 198.996094 163.335938 L 198.996094 158.835938 C 199 158.578125 198.957031 158.332031 198.859375 158.097656 C 198.761719 157.859375 198.625 157.652344 198.445312 157.46875 C 198.265625 157.289062 198.054688 157.152344 197.820312 157.054688 C 197.582031 156.960938 197.335938 156.914062 197.082031 156.917969 L 166.914062 156.917969 C 166.660156 156.914062 166.414062 156.960938 166.175781 157.054688 C 165.941406 157.152344 165.730469 157.289062 165.550781 157.46875 C 165.371094 157.652344 165.230469 157.859375 165.136719 158.097656 C 165.039062 158.332031 164.992188 158.578125 164.996094 158.835938 L 164.996094 163.335938 C 165 163.589844 164.957031 163.835938 164.859375 164.070312 C 164.765625 164.308594 164.625 164.515625 164.445312 164.699219 C 164.265625 164.878906 164.054688 165.015625 163.820312 165.113281 C 163.582031 165.207031 163.335938 165.253906 163.082031 165.25 L 158.414062 165.25 C 158.160156 165.246094 157.914062 165.292969 157.675781 165.386719 C 157.441406 165.484375 157.230469 165.621094 157.050781 165.804688 C 156.871094 165.984375 156.730469 166.191406 156.636719 166.429688 C 156.539062 166.664062 156.492188 166.910156 156.496094 167.167969 L 156.496094 205 C 156.496094 206.082031 157.332031 206.917969 158.414062 206.917969 L 163.082031 206.917969 C 163.335938 206.914062 163.582031 206.957031 163.820312 207.054688 C 164.054688 207.148438 164.265625 207.289062 164.445312 207.46875 C 164.625 207.648438 164.765625 207.859375 164.859375 208.09375 C 164.957031 208.332031 165 208.578125 164.996094 208.832031 L 164.996094 213.332031 C 164.996094 214.417969 165.832031 215.25 166.914062 215.25 L 197.082031 215.25 C 197.335938 215.253906 197.582031 215.207031 197.820312 215.113281 C 198.054688 215.015625 198.265625 214.878906 198.445312 214.699219 C 198.625 214.515625 198.761719 214.308594 198.859375 214.070312 C 198.957031 213.835938 199 213.589844 198.996094 213.332031 L 198.996094 208.832031 C 198.992188 208.578125 199.039062 208.332031 199.136719 208.09375 C 199.230469 207.859375 199.371094 207.648438 199.550781 207.46875 C 199.730469 207.289062 199.9375 207.148438 200.175781 207.054688 C 200.414062 206.957031 200.660156 206.914062 200.914062 206.917969 L 205.582031 206.917969 C 205.835938 206.921875 206.082031 206.875 206.320312 206.777344 C 206.554688 206.683594 206.765625 206.542969 206.945312 206.363281 C 207.125 206.183594 207.261719 205.976562 207.359375 205.738281 C 207.457031 205.5 207.5 205.253906 207.496094 205 L 207.496094 198.582031 L 198.996094 198.582031 L 198.996094 205 C 199 205.253906 198.957031 205.5 198.859375 205.738281 C 198.761719 205.976562 198.625 206.183594 198.445312 206.363281 C 198.265625 206.542969 198.054688 206.683594 197.820312 206.777344 C 197.582031 206.875 197.335938 206.921875 197.082031 206.917969 L 166.914062 206.917969 C 166.660156 206.921875 166.414062 206.875 166.175781 206.777344 C 165.941406 206.683594 165.730469 206.542969 165.550781 206.363281 C 165.371094 206.183594 165.230469 205.976562 165.136719 205.738281 C 165.039062 205.5 164.992188 205.253906 164.996094 205 L 164.996094 167.167969 C 164.992188 166.910156 165.039062 166.664062 165.136719 166.429688 C 165.230469 166.191406 165.371094 165.984375 165.550781 165.804688 C 165.730469 165.621094 165.941406 165.484375 166.175781 165.386719 C 166.414062 165.292969 166.660156 165.246094 166.914062 165.25 L 197.082031 165.25 C 197.335938 165.246094 197.582031 165.292969 197.820312 165.386719 C 198.054688 165.484375 198.265625 165.621094 198.445312 165.804688 C 198.625 165.984375 198.761719 166.191406 198.859375 166.429688 C 198.957031 166.664062 199 166.910156 198.996094 167.167969 L 198.996094 173.582031 L 207.496094 173.582031 L 207.496094 167.167969 C 207.5 166.910156 207.457031 166.664062 207.359375 166.429688 C 207.261719 166.191406 207.125 165.984375 206.945312 165.804688 C 206.765625 165.621094 206.554688 165.484375 206.320312 165.386719 C 206.082031 165.292969 205.835938 165.246094 205.582031 165.25 Z M 205.582031 165.25" fill="#ffffff"/></g></svg>